<svg xmlns="http://www.w3.org/2000/svg" xmlns:xlink="http://www.w3.org/1999/xlink" viewBox="0 0 278.29 189.28"><defs><style>.cls-1,.cls-7,.cls-8,.cls-9{fill:none;}.cls-2{fill:#001455;}.cls-3{fill:#f4841a;}.cls-4{fill:#f4681a;}.cls-5{fill:#ea4e00;}.cls-6{clip-path:url(#clip-path);}.cls-7{stroke:#ea4e00;}.cls-7,.cls-8,.cls-9{stroke-linecap:round;stroke-miterlimit:10;stroke-width:5px;}.cls-8{stroke:#f4841a;}.cls-9{stroke:#f4681a;}</style><clipPath id="clip-path"><path class="cls-1" d="M249.55,90.69l-105,74c-22.34-15.67-44.75-31.22-67-47-22.67-16.09-45.34-32.17-67-47,13-18.34,29-39.67,42-58,4,3,9,6,13,9l63-20Z"/></clipPath></defs><title>logo</title><g id="Layer_2" data-name="Layer 2"><g id="Layer_1-2" data-name="Layer 1"><path class="cls-2" d="M249.55,90.69l-105,74c-22.34-15.67-44.75-31.22-67-47-22.67-16.09-45.34-32.17-67-47,13-18.34,29-39.67,42-58,4,3,9,6,13,9l63-20Z"/><rect class="cls-3" x="203.58" y="31.65" width="72.75" height="42.08" transform="translate(142.36 -172.76) rotate(54.21)"/><polygon class="cls-4" points="219.55 111.69 135.08 42.31 162.08 9.32 256.04 86.2 219.55 111.69"/><path class="cls-3" d="M158.92,0,102,41a12.33,12.33,0,0,0-2.79,17.22v0a12.34,12.34,0,0,0,17.22,2.79l56.91-41Z"/><polygon class="cls-5" points="216.55 53.69 138.55 45.69 158.82 0.03 221.24 21.09 216.55 53.69"/><g class="cls-6"><line class="cls-7" x1="138.55" y1="130.69" x2="187.55" y2="170.69"/><line class="cls-8" x1="152.55" y1="82.69" x2="218.55" y2="136.69"/><line class="cls-9" x1="147.55" y1="108.69" x2="196.55" y2="148.69"/><path class="cls-5" d="M11.77,90.79H81.93a0,0,0,0,1,0,0v24.69a0,0,0,0,1,0,0H11.77A12.34,12.34,0,0,1-.57,103.14v0A12.34,12.34,0,0,1,11.77,90.79Z" transform="translate(133.99 163.01) rotate(144.21)"/><path class="cls-3" d="M35.77,108.79h70.15a0,0,0,0,1,0,0v24.69a0,0,0,0,1,0,0H35.77a12.34,12.34,0,0,1-12.34-12.34v0a12.34,12.34,0,0,1,12.34-12.34Z" transform="translate(187.99 181.57) rotate(144.21)"/><path class="cls-4" d="M59.77,125.79h70.15a0,0,0,0,1,0,0v24.69a0,0,0,0,1,0,0H59.77a12.34,12.34,0,0,1-12.34-12.34v0A12.34,12.34,0,0,1,59.77,125.79Z" transform="translate(241.4 198.33) rotate(144.21)"/><path class="cls-3" d="M82.77,142.79h70.15a0,0,0,0,1,0,0v24.69a0,0,0,0,1,0,0H82.77a12.34,12.34,0,0,1-12.34-12.34v0a12.34,12.34,0,0,1,12.34-12.34Z" transform="translate(293 215.67) rotate(144.21)"/></g></g></g></svg>